<?xml version="1.0" encoding="utf-8"?>
<!-- Generator: Adobe Illustrator 24.0.0, SVG Export Plug-In . SVG Version: 6.00 Build 0)  -->
<svg width="180px" height="172px" version="1.1" id="Layer_1" xmlns="http://www.w3.org/2000/svg" xmlns:xlink="http://www.w3.org/1999/xlink" x="0px" y="0px"
	 viewBox="0 0 835.63 702.27" style="enable-background:new 0 0 835.63 702.27;" xml:space="preserve">
<style type="text/css">
	.st0{fill:#C49F55;}
	.st1{fill:#00999D;}
</style>
<g>
	<path class="st0" d="M413.14,620.94c12.68-18.38,23.51-34.08,32.66-47.35c10.37,10.59,18.73,20.34,28.35,28.63
		c10.57,9.1,12.05,18.11,4.02,29.39c-10.73,15.08-21.09,30.41-33.51,45.63c0.63-26.27-27.89-26.12-35.79-46.07
		c-12.86,18.07-24.39,34.27-34.13,47.95c-8.09-9.23-13.78-18.16-21.67-24.23c-19.07-14.68-20.37-18.96-6.31-39.38
		c9.25-13.44,18.8-26.67,30.05-39.76C376.75,601.64,404.49,601.82,413.14,620.94z"/>
	<path class="st1" d="M727.44,148c-34.25,16.97-68.99,32.8-104.89,45.93c-50.07,18.27-103.49,31.9-145.28,65.1
		c-52.42,41.64-78.63,108.04-93.81,173.29c0.3-51.72,4.94-103.39,13.78-154.36c-7.84,11.88-24.11,15.78-37.99,12.93
		c-13.93-2.85-26.01-11.13-37.49-19.57c-53.42-39.34-97.55-85.62-141.78-134.64c-13.13-14.53-17.47-1.25-19.27,12.98
		c-2.3,18.47-4.64,36.89-6.99,55.37c-4.64,36.94-9.29,73.89-13.93,110.83c-0.75,5.99-1.5,12.18-0.1,18.02
		c2.2,9.09,9.04,16.18,15.48,22.92c36.49,38.24,67.65,81.62,92.16,128.45c-11.18-46.08-34.45-89.11-66.8-123.76
		c-5.54-5.89-11.53-11.93-13.73-19.72c-1.65-5.99-0.85-12.38,0-18.62c6.99-52.27,14.03-104.54,21.02-156.86
		c54.07,62.9,97.45,136.14,118.42,216.37c21.02,80.18,18.62,167.69-14.53,243.73C361.85,557.92,410.43,468.21,430,372.21
		c-1.3,30.3-2.75,60.76-8.84,90.46c-7.49,36.39-22.62,72.69-50.27,98.45c31.95-10.83,63.9-21.72,95.9-32.55
		c57.56-19.52,119.32-42.24,152.72-93.01c44.88-68.25,22.47-162.3,57.46-236.09c3.15-2.35,5.79,3.54,5.39,7.44
		c-2.05,19.37-4.09,38.74-6.14,58.11c-3.84,35.85-7.64,71.79-14.68,107.19c-7.19,36-18.27,72.44-42.09,100.35
		c-14.08,16.53-32.3,29.45-52.47,37.29c-5.39,2.1-11.08,3.94-15.23,7.99c-4.19,3.99-6.14,10.98-2.7,15.58
		c42.73-20.82,96.1-12.93,136.59-37.79c21.07-12.88,36.39-33.5,47.53-55.52c51.42-101.6,20.62-229.85,71.24-331.84
		C778.87,121.74,753.31,135.22,727.44,148z M516.82,454.43c9.19-49.27,18.07-98.65,27.86-147.77c2-9.88,7.69-18.97,12.73-31.05
		C566.24,321.83,545.42,419.54,516.82,454.43z"/>
	<path class="st0" d="M376.6,238.48c-0.24,0.48-0.53,1.01-0.82,1.49c-7.49,13.81-18.26,24.8-36.28,23.37
		c-7.02-0.58-12.91-2.61-17.98-6.08c-7.88-5.3-13.83-13.96-18.96-25.9c-0.5-1.24-0.95-2.48-1.34-3.77
		c-5.03-15.59-2.98-33.91,7.3-51.2c7.5-12.61,18.9-20.29,34.31-19.53c16.76,0.82,27.56,11.53,34.1,25.24
		c0.47,1.04,0.94,1.98,1.36,3.02l0,0.05C385.66,202.61,385.59,221.14,376.6,238.48z"/>
	<path class="st0" d="M179.24,438.89l0-0.05c-31.19-37.42-68.21-75.37-97.03-85.5l30.02-225.6c0,0,17.21,14.28,23.06,35.2
		l-22.82,182.97c0,0,35.47,28.05,70.72,72.22l0,0.05c23.26,29.11,46.35,65.16,59.18,104.84
		C242.37,523.02,214.59,481.27,179.24,438.89z"/>
	<path class="st0" d="M237.3,564.68c-1.16-1.7-2.37-3.45-3.53-5.15c-17.16-24.65-38.18-51.82-63.74-79.76
		c-6.2-6.82-12.65-13.66-19.41-20.53c-42.22-42.88-83.95-75.16-119.42-98.91l30.02-225.6c0,0,17.22,14.24,23.06,35.2
		c-7.13,63.68-14.25,127.37-21.38,191.1c27,17.09,47.89,34.18,63,47.79c19.91,18.01,36.18,35.88,49.06,51.66
		c18.52,22.76,29.98,41.28,35.08,49.86c10.78,18.17,18.7,34.59,24.39,47.68C235.45,560.37,236.42,562.55,237.3,564.68z"/>
	<path class="st0" d="M667.81,75.93c6.31-21.42,11.69-39.72,16.25-55.18c13.15,6.82,24.14,13.48,35.88,18.35
		c12.88,5.35,17.1,13.45,13,26.67c-5.48,17.67-10.53,35.48-17.59,53.81c-7.6-25.15-34.65-16.1-48.39-32.59
		c-6.58,21.18-12.47,40.18-17.45,56.21c-10.57-6.24-18.76-12.95-28.15-16.25c-22.7-7.99-25.27-11.65-18.3-35.44
		c4.59-15.66,9.53-31.21,16.13-47.15C627.22,68.95,653.62,60.46,667.81,75.93z"/>
</g>
</svg>
